<?xml version="1.0" encoding="UTF-8"?>
<svg width="47px" height="48px" viewBox="0 0 47 48" version="1.1" xmlns="http://www.w3.org/2000/svg" xmlns:xlink="http://www.w3.org/1999/xlink">
    <!-- Generator: Sketch 58 (84663) - https://sketch.com -->
    <title>metacritic-logo</title>
    <desc>Created with Sketch.</desc>
    <g id="Page-1" stroke="none" stroke-width="1" fill="none" fill-rule="evenodd">
        <g id="metacritic-logo" transform="translate(0.564444, 0.564444)" fill-rule="nonzero">
            <g id="layer5" transform="translate(2.540000, 2.459818)" fill="#000000">
                <path d="M40.599468,20.3297681 C40.599468,31.5142357 31.5343907,40.581951 20.3499235,40.5852223 C9.16545545,40.5884911 0.0950841767,31.5260768 0.0885346556,20.3416101 C0.0819995819,9.15713966 9.14176856,0.0841185602 20.3262366,0.0743011504 C31.5107059,0.0644988313 40.5863772,9.12161525 40.599468,20.3060812" id="path3481"></path>
            </g>
            <g id="layer2" transform="translate(0.000000, 0.202040)" fill="#FFCE35">
                <path d="M23.2340411,0.165316267 C10.4440026,0.176690718 0.0837582408,10.5522345 0.0912629204,23.3422759 C0.0986761277,36.1325296 10.4713465,46.4960704 23.2616018,46.4922183 C36.0518548,46.4884577 46.4181537,36.1187485 46.4181537,23.3284949 L46.4181537,23.3014863 C46.4031396,10.5112325 36.0242986,0.153858157 23.2340411,0.165316267 L23.2340411,0.165316267 Z M23.1282078,5.11578112 C33.14639,5.10673768 41.2757955,13.2193636 41.2874439,23.2375432 L41.2874439,23.2584841 C41.2874439,33.2764468 33.1676675,41.3983561 23.1497052,41.4011831 C13.1317437,41.404141 5.00736637,33.2869231 5.00148992,23.268963 C4.99579222,13.2512121 13.1104592,5.12470017 23.1282078,5.11578112 L23.1282078,5.11578112 Z" id="path3402"></path>
            </g>
            <g id="layer4" transform="translate(6.208889, 3.999818)" fill="#FFFFFF">
                <g id="text3351" transform="translate(17.535426, 18.049412) rotate(-45.000000) translate(-17.535426, -18.049412) translate(3.035426, 8.049412)">
                    <path d="M0.22556047,19.0101054 L5.81088509,19.0101054 L5.81088509,8.25458526 C5.81088509,7.80172301 5.84862385,7.27338043 6.03731763,6.82051817 C6.37696361,5.87704927 7.244955,4.74488941 8.71676085,4.74488941 C10.5282183,4.74488941 11.3584681,6.32991434 11.3584681,8.66971158 L11.3584681,19.0101054 L16.9437899,19.0101054 L16.9437899,8.21684651 C16.9437899,7.76398426 17.0192674,7.16016416 17.1702225,6.74504066 C17.54761,5.65061956 18.4910761,4.74488941 19.8119298,4.74488941 C21.6611232,4.74488941 22.5291146,6.29217559 22.5291146,8.97162163 L22.5291146,19.0101054 L28.1144364,19.0101054 L28.1144364,8.141369 C28.1144364,2.63152471 25.4349903,0.140772447 21.8875557,0.140772447 C20.5289633,0.140772447 19.3968034,0.442682496 18.3778598,1.04649977 C17.5098713,1.57484236 16.6796215,2.2918759 16.0003239,3.27308356 L15.9248463,3.27308356 C15.1323353,1.34840982 13.2454003,0.140772447 10.8678643,0.140772447 C7.69781726,0.140772447 6.07505639,1.87675241 5.28254251,3.04665103 L5.16932624,3.04665103 L4.90515494,0.555898764 L0.0746082679,0.555898764 C0.15008578,2.17865963 0.22556047,4.14107213 0.22556047,6.44313061 L0.22556047,19.0101054 L0.22556047,19.0101054 Z" id="path3345"></path>
                </g>
            </g>
        </g>
    </g>
</svg>